<?xml version="1.0" encoding="UTF-8" standalone="no"?>
<svg width="59px" height="458px" viewBox="0 0 59 458" version="1.1" xmlns="http://www.w3.org/2000/svg" xmlns:xlink="http://www.w3.org/1999/xlink" xmlns:sketch="http://www.bohemiancoding.com/sketch/ns">
    <!-- Generator: Sketch 3.3.3 (12072) - http://www.bohemiancoding.com/sketch -->
    <title>Cubes</title>
    <desc>Created with Sketch.</desc>
    <defs></defs>
    <g id="Main" stroke="none" stroke-width="1" fill="none" fill-rule="evenodd" sketch:type="MSPage">
        <g id="Cube-Timer" sketch:type="MSArtboardGroup" transform="translate(-30.000000, -30.000000)" fill="#FFFFFF">
            <g id="Cubes" sketch:type="MSLayerGroup" transform="translate(30.000000, 30.000000)">
                <g id="6x6x6" transform="translate(1.000000, 400.000000)" sketch:type="MSShapeGroup">
                    <path d="M50,50 L58,50 L58,58 L50,58 L50,50 Z M40,51.9981014 C40,50.8945804 40.8867064,50 41.9981014,50 L46.0018986,50 C47.1054196,50 48,50.8867064 48,51.9981014 L48,58 L40,58 L40,51.9981014 Z M30,51.9981014 C30,50.8945804 30.8867064,50 31.9981014,50 L36.0018986,50 C37.1054196,50 38,50.8867064 38,51.9981014 L38,58 L30,58 L30,51.9981014 Z M20,51.9981014 C20,50.8945804 20.8867064,50 21.9981014,50 L26.0018986,50 C27.1054196,50 28,50.8867064 28,51.9981014 L28,58 L20,58 L20,51.9981014 Z M10,51.9981014 C10,50.8945804 10.8867064,50 11.9981014,50 L16.0018986,50 C17.1054196,50 18,50.8867064 18,51.9981014 L18,58 L10,58 L10,51.9981014 Z M0,50 L8,50 L8,58 L0,58 L0,50 Z M50,41.9981014 C50,40.8945804 50.8867064,40 51.9981014,40 L58,40 L58,48 L51.9981014,48 C50.8945804,48 50,47.1132936 50,46.0018986 L50,41.9981014 Z M40,41.9981014 C40,40.8945804 40.8867064,40 41.9981014,40 L46.0018986,40 C47.1054196,40 48,40.8867064 48,41.9981014 L48,46.0018986 C48,47.1054196 47.1132936,48 46.0018986,48 L41.9981014,48 C40.8945804,48 40,47.1132936 40,46.0018986 L40,41.9981014 Z M30,41.9981014 C30,40.8945804 30.8867064,40 31.9981014,40 L36.0018986,40 C37.1054196,40 38,40.8867064 38,41.9981014 L38,46.0018986 C38,47.1054196 37.1132936,48 36.0018986,48 L31.9981014,48 C30.8945804,48 30,47.1132936 30,46.0018986 L30,41.9981014 Z M20,41.9981014 C20,40.8945804 20.8867064,40 21.9981014,40 L26.0018986,40 C27.1054196,40 28,40.8867064 28,41.9981014 L28,46.0018986 C28,47.1054196 27.1132936,48 26.0018986,48 L21.9981014,48 C20.8945804,48 20,47.1132936 20,46.0018986 L20,41.9981014 Z M10,41.9981014 C10,40.8945804 10.8867064,40 11.9981014,40 L16.0018986,40 C17.1054196,40 18,40.8867064 18,41.9981014 L18,46.0018986 C18,47.1054196 17.1132936,48 16.0018986,48 L11.9981014,48 C10.8945804,48 10,47.1132936 10,46.0018986 L10,41.9981014 Z M0,40 L6.00189865,40 C7.10541955,40 8,40.8867064 8,41.9981014 L8,46.0018986 C8,47.1054196 7.11329365,48 6.00189865,48 L0,48 L0,40 Z M50,31.9981014 C50,30.8945804 50.8867064,30 51.9981014,30 L58,30 L58,38 L51.9981014,38 C50.8945804,38 50,37.1132936 50,36.0018986 L50,31.9981014 Z M40,31.9981014 C40,30.8945804 40.8867064,30 41.9981014,30 L46.0018986,30 C47.1054196,30 48,30.8867064 48,31.9981014 L48,36.0018986 C48,37.1054196 47.1132936,38 46.0018986,38 L41.9981014,38 C40.8945804,38 40,37.1132936 40,36.0018986 L40,31.9981014 Z M30,31.9981014 C30,30.8945804 30.8867064,30 31.9981014,30 L36.0018986,30 C37.1054196,30 38,30.8867064 38,31.9981014 L38,36.0018986 C38,37.1054196 37.1132936,38 36.0018986,38 L31.9981014,38 C30.8945804,38 30,37.1132936 30,36.0018986 L30,31.9981014 Z M20,31.9981014 C20,30.8945804 20.8867064,30 21.9981014,30 L26.0018986,30 C27.1054196,30 28,30.8867064 28,31.9981014 L28,36.0018986 C28,37.1054196 27.1132936,38 26.0018986,38 L21.9981014,38 C20.8945804,38 20,37.1132936 20,36.0018986 L20,31.9981014 Z M10,31.9981014 C10,30.8945804 10.8867064,30 11.9981014,30 L16.0018986,30 C17.1054196,30 18,30.8867064 18,31.9981014 L18,36.0018986 C18,37.1054196 17.1132936,38 16.0018986,38 L11.9981014,38 C10.8945804,38 10,37.1132936 10,36.0018986 L10,31.9981014 Z M0,30 L6.00189865,30 C7.10541955,30 8,30.8867064 8,31.9981014 L8,36.0018986 C8,37.1054196 7.11329365,38 6.00189865,38 L0,38 L0,30 Z M50,21.9981014 C50,20.8945804 50.8867064,20 51.9981014,20 L58,20 L58,28 L51.9981014,28 C50.8945804,28 50,27.1132936 50,26.0018986 L50,21.9981014 Z M40,21.9981014 C40,20.8945804 40.8867064,20 41.9981014,20 L46.0018986,20 C47.1054196,20 48,20.8867064 48,21.9981014 L48,26.0018986 C48,27.1054196 47.1132936,28 46.0018986,28 L41.9981014,28 C40.8945804,28 40,27.1132936 40,26.0018986 L40,21.9981014 Z M30,21.9981014 C30,20.8945804 30.8867064,20 31.9981014,20 L36.0018986,20 C37.1054196,20 38,20.8867064 38,21.9981014 L38,26.0018986 C38,27.1054196 37.1132936,28 36.0018986,28 L31.9981014,28 C30.8945804,28 30,27.1132936 30,26.0018986 L30,21.9981014 Z M20,21.9981014 C20,20.8945804 20.8867064,20 21.9981014,20 L26.0018986,20 C27.1054196,20 28,20.8867064 28,21.9981014 L28,26.0018986 C28,27.1054196 27.1132936,28 26.0018986,28 L21.9981014,28 C20.8945804,28 20,27.1132936 20,26.0018986 L20,21.9981014 Z M10,21.9981014 C10,20.8945804 10.8867064,20 11.9981014,20 L16.0018986,20 C17.1054196,20 18,20.8867064 18,21.9981014 L18,26.0018986 C18,27.1054196 17.1132936,28 16.0018986,28 L11.9981014,28 C10.8945804,28 10,27.1132936 10,26.0018986 L10,21.9981014 Z M0,20 L6.00189865,20 C7.10541955,20 8,20.8867064 8,21.9981014 L8,26.0018986 C8,27.1054196 7.11329365,28 6.00189865,28 L0,28 L0,20 Z M50,11.9981014 C50,10.8945804 50.8867064,10 51.9981014,10 L58,10 L58,18 L51.9981014,18 C50.8945804,18 50,17.1132936 50,16.0018986 L50,11.9981014 Z M40,11.9981014 C40,10.8945804 40.8867064,10 41.9981014,10 L46.0018986,10 C47.1054196,10 48,10.8867064 48,11.9981014 L48,16.0018986 C48,17.1054196 47.1132936,18 46.0018986,18 L41.9981014,18 C40.8945804,18 40,17.1132936 40,16.0018986 L40,11.9981014 Z M30,11.9981014 C30,10.8945804 30.8867064,10 31.9981014,10 L36.0018986,10 C37.1054196,10 38,10.8867064 38,11.9981014 L38,16.0018986 C38,17.1054196 37.1132936,18 36.0018986,18 L31.9981014,18 C30.8945804,18 30,17.1132936 30,16.0018986 L30,11.9981014 Z M20,11.9981014 C20,10.8945804 20.8867064,10 21.9981014,10 L26.0018986,10 C27.1054196,10 28,10.8867064 28,11.9981014 L28,16.0018986 C28,17.1054196 27.1132936,18 26.0018986,18 L21.9981014,18 C20.8945804,18 20,17.1132936 20,16.0018986 L20,11.9981014 Z M10,11.9981014 C10,10.8945804 10.8867064,10 11.9981014,10 L16.0018986,10 C17.1054196,10 18,10.8867064 18,11.9981014 L18,16.0018986 C18,17.1054196 17.1132936,18 16.0018986,18 L11.9981014,18 C10.8945804,18 10,17.1132936 10,16.0018986 L10,11.9981014 Z M0,10 L6.00189865,10 C7.10541955,10 8,10.8867064 8,11.9981014 L8,16.0018986 C8,17.1054196 7.11329365,18 6.00189865,18 L0,18 L0,10 Z M50,0 L58,0 L58,8 L50,8 L50,0 Z M40,0 L48,0 L48,6.00189865 C48,7.10541955 47.1132936,8 46.0018986,8 L41.9981014,8 C40.8945804,8 40,7.11329365 40,6.00189865 L40,0 Z M30,0 L38,0 L38,6.00189865 C38,7.10541955 37.1132936,8 36.0018986,8 L31.9981014,8 C30.8945804,8 30,7.11329365 30,6.00189865 L30,0 Z M20,0 L28,0 L28,6.00189865 C28,7.10541955 27.1132936,8 26.0018986,8 L21.9981014,8 C20.8945804,8 20,7.11329365 20,6.00189865 L20,0 Z M10,0 L18,0 L18,6.00189865 C18,7.10541955 17.1132936,8 16.0018986,8 L11.9981014,8 C10.8945804,8 10,7.11329365 10,6.00189865 L10,0 Z M0,0 L8,0 L8,8 L0,8 L0,0 Z" id="Rectangle-57"></path>
                </g>
                <g id="5x5x5" transform="translate(0.500000, 300.000000)" sketch:type="MSShapeGroup">
                    <path d="M48,48 L58,48 L58,58 L48,58 L48,48 Z M36,49.999615 C36,48.8952581 36.8874333,48 37.999615,48 L44.000385,48 C45.1047419,48 46,48.8874333 46,49.999615 L46,58 L36,58 L36,49.999615 Z M24,49.999615 C24,48.8952581 24.8874333,48 25.999615,48 L32.000385,48 C33.1047419,48 34,48.8874333 34,49.999615 L34,58 L24,58 L24,49.999615 Z M12,49.999615 C12,48.8952581 12.8874333,48 13.999615,48 L20.000385,48 C21.1047419,48 22,48.8874333 22,49.999615 L22,58 L12,58 L12,49.999615 Z M0,48 L10,48 L10,58 L0,58 L0,48 Z M48,37.999615 C48,36.8952581 48.8874333,36 49.999615,36 L58,36 L58,46 L49.999615,46 C48.8952581,46 48,45.1125667 48,44.000385 L48,37.999615 Z M36,37.999615 C36,36.8952581 36.8874333,36 37.999615,36 L44.000385,36 C45.1047419,36 46,36.8874333 46,37.999615 L46,44.000385 C46,45.1047419 45.1125667,46 44.000385,46 L37.999615,46 C36.8952581,46 36,45.1125667 36,44.000385 L36,37.999615 Z M24,37.999615 C24,36.8952581 24.8874333,36 25.999615,36 L32.000385,36 C33.1047419,36 34,36.8874333 34,37.999615 L34,44.000385 C34,45.1047419 33.1125667,46 32.000385,46 L25.999615,46 C24.8952581,46 24,45.1125667 24,44.000385 L24,37.999615 Z M12,37.999615 C12,36.8952581 12.8874333,36 13.999615,36 L20.000385,36 C21.1047419,36 22,36.8874333 22,37.999615 L22,44.000385 C22,45.1047419 21.1125667,46 20.000385,46 L13.999615,46 C12.8952581,46 12,45.1125667 12,44.000385 L12,37.999615 Z M0,36 L8.00038502,36 C9.10474188,36 10,36.8874333 10,37.999615 L10,44.000385 C10,45.1047419 9.11256671,46 8.00038502,46 L0,46 L0,36 Z M48,25.999615 C48,24.8952581 48.8874333,24 49.999615,24 L58,24 L58,34 L49.999615,34 C48.8952581,34 48,33.1125667 48,32.000385 L48,25.999615 Z M36,25.999615 C36,24.8952581 36.8874333,24 37.999615,24 L44.000385,24 C45.1047419,24 46,24.8874333 46,25.999615 L46,32.000385 C46,33.1047419 45.1125667,34 44.000385,34 L37.999615,34 C36.8952581,34 36,33.1125667 36,32.000385 L36,25.999615 Z M24,25.999615 C24,24.8952581 24.8874333,24 25.999615,24 L32.000385,24 C33.1047419,24 34,24.8874333 34,25.999615 L34,32.000385 C34,33.1047419 33.1125667,34 32.000385,34 L25.999615,34 C24.8952581,34 24,33.1125667 24,32.000385 L24,25.999615 Z M12,25.999615 C12,24.8952581 12.8874333,24 13.999615,24 L20.000385,24 C21.1047419,24 22,24.8874333 22,25.999615 L22,32.000385 C22,33.1047419 21.1125667,34 20.000385,34 L13.999615,34 C12.8952581,34 12,33.1125667 12,32.000385 L12,25.999615 Z M0,24 L8.00038502,24 C9.10474188,24 10,24.8874333 10,25.999615 L10,32.000385 C10,33.1047419 9.11256671,34 8.00038502,34 L0,34 L0,24 Z M48,13.999615 C48,12.8952581 48.8874333,12 49.999615,12 L58,12 L58,22 L49.999615,22 C48.8952581,22 48,21.1125667 48,20.000385 L48,13.999615 Z M36,13.999615 C36,12.8952581 36.8874333,12 37.999615,12 L44.000385,12 C45.1047419,12 46,12.8874333 46,13.999615 L46,20.000385 C46,21.1047419 45.1125667,22 44.000385,22 L37.999615,22 C36.8952581,22 36,21.1125667 36,20.000385 L36,13.999615 Z M24,13.999615 C24,12.8952581 24.8874333,12 25.999615,12 L32.000385,12 C33.1047419,12 34,12.8874333 34,13.999615 L34,20.000385 C34,21.1047419 33.1125667,22 32.000385,22 L25.999615,22 C24.8952581,22 24,21.1125667 24,20.000385 L24,13.999615 Z M12,13.999615 C12,12.8952581 12.8874333,12 13.999615,12 L20.000385,12 C21.1047419,12 22,12.8874333 22,13.999615 L22,20.000385 C22,21.1047419 21.1125667,22 20.000385,22 L13.999615,22 C12.8952581,22 12,21.1125667 12,20.000385 L12,13.999615 Z M0,12 L8.00038502,12 C9.10474188,12 10,12.8874333 10,13.999615 L10,20.000385 C10,21.1047419 9.11256671,22 8.00038502,22 L0,22 L0,12 Z M48,0 L58,0 L58,10 L48,10 L48,0 Z M36,0 L46,0 L46,8.00038502 C46,9.10474188 45.1125667,10 44.000385,10 L37.999615,10 C36.8952581,10 36,9.11256671 36,8.00038502 L36,0 Z M24,0 L34,0 L34,8.00038502 C34,9.10474188 33.1125667,10 32.000385,10 L25.999615,10 C24.8952581,10 24,9.11256671 24,8.00038502 L24,0 Z M12,0 L22,0 L22,8.00038502 C22,9.10474188 21.1125667,10 20.000385,10 L13.999615,10 C12.8952581,10 12,9.11256671 12,8.00038502 L12,0 Z M0,0 L10,0 L10,10 L0,10 L0,0 Z" id="Rectangle-82"></path>
                </g>
                <g id="4x4x4" transform="translate(1.000000, 200.000000)" sketch:type="MSShapeGroup">
                    <path d="M45,49.0065045 C45,46.7937732 46.7939455,45 49.0065045,45 L58,45 L58,58 L45,58 L45,49.0065045 Z M30,45 L38.9934955,45 C41.2062268,45 43,46.7939455 43,49.0065045 L43,58 L30,58 L30,45 Z M15,49.0065045 C15,46.7937732 16.7939455,45 19.0065045,45 L28,45 L28,58 L15,58 L15,49.0065045 Z M0,45 L8.99349548,45 C11.2062268,45 13,46.7939455 13,49.0065045 L13,58 L0,58 L0,45 Z M45,30 L58,30 L58,43 L49.0065045,43 C46.7937732,43 45,41.2060545 45,38.9934955 L45,30 Z M30,30 L43,30 L43,38.9934955 C43,41.2062268 41.2060545,43 38.9934955,43 L30,43 L30,30 Z M15,30 L28,30 L28,43 L19.0065045,43 C16.7937732,43 15,41.2060545 15,38.9934955 L15,30 Z M0,30 L13,30 L13,38.9934955 C13,41.2062268 11.2060545,43 8.99349548,43 L0,43 L0,30 Z M45,19.0065045 C45,16.7937732 46.7939455,15 49.0065045,15 L58,15 L58,28 L45,28 L45,19.0065045 Z M30,15 L38.9934955,15 C41.2062268,15 43,16.7939455 43,19.0065045 L43,28 L30,28 L30,15 Z M15,19.0065045 C15,16.7937732 16.7939455,15 19.0065045,15 L28,15 L28,28 L15,28 L15,19.0065045 Z M0,15 L8.99349548,15 C11.2062268,15 13,16.7939455 13,19.0065045 L13,28 L0,28 L0,15 Z M45,0 L58,0 L58,13 L49.0065045,13 C46.7937732,13 45,11.2060545 45,8.99349548 L45,0 Z M30,0 L43,0 L43,8.99349548 C43,11.2062268 41.2060545,13 38.9934955,13 L30,13 L30,0 Z M15,0 L28,0 L28,13 L19.0065045,13 C16.7937732,13 15,11.2060545 15,8.99349548 L15,0 Z M0,0 L13,0 L13,8.99349548 C13,11.2062268 11.2060545,13 8.99349548,13 L0,13 L0,0 Z" id="Rectangle-98"></path>
                </g>
                <g id="3x3x3" transform="translate(1.000000, 100.000000)" sketch:type="MSShapeGroup">
                    <path d="M40,40 L58,40 L58,58 L40,58 L40,40 Z M20,43.9947834 C20,41.7885255 21.7917156,40 23.9947834,40 L34.0052166,40 C36.2114745,40 38,41.7917156 38,43.9947834 L38,58 L20,58 L20,43.9947834 Z M0,40 L18,40 L18,58 L0,58 L0,40 Z M40,23.9947834 C40,21.7885255 41.7917156,20 43.9947834,20 L58,20 L58,38 L43.9947834,38 C41.7885255,38 40,36.2082844 40,34.0052166 L40,23.9947834 Z M20,29 C20,24.0294373 24.0283444,20 29,20 C33.9705627,20 38,24.0283444 38,29 C38,33.9705627 33.9716556,38 29,38 C24.0294373,38 20,33.9716556 20,29 Z M0,20 L14.0052166,20 C16.2114745,20 18,21.7917156 18,23.9947834 L18,34.0052166 C18,36.2114745 16.2082844,38 14.0052166,38 L0,38 L0,20 Z M40,0 L58,0 L58,18 L40,18 L40,0 Z M20,0 L38,0 L38,14.0052166 C38,16.2114745 36.2082844,18 34.0052166,18 L23.9947834,18 C21.7885255,18 20,16.2082844 20,14.0052166 L20,0 Z M0,0 L18,0 L18,18 L0,18 L0,0 Z" id="Rectangle-107"></path>
                </g>
                <g id="2x2x2" transform="translate(1.000000, 0.000000)" sketch:type="MSShapeGroup">
                    <path d="M30,39.9900582 C30,34.4727014 34.4676442,30 39.9900582,30 L58,30 L58,58 L30,58 L30,39.9900582 Z M0,30 L18.0099418,30 C23.5272986,30 28,34.4676442 28,39.9900582 L28,58 L0,58 L0,30 Z M30,0 L58,0 L58,28 L39.9900582,28 C34.4727014,28 30,23.5323558 30,18.0099418 L30,0 Z M0,0 L28,0 L28,18.0099418 C28,23.5272986 23.5323558,28 18.0099418,28 L0,28 L0,0 Z" id="Rectangle-111"></path>
                </g>
            </g>
        </g>
    </g>
</svg>