<?xml version="1.0" encoding="UTF-8" standalone="no"?>
<svg width="60px" height="757px" viewBox="0 0 60 757" version="1.1" xmlns="http://www.w3.org/2000/svg" xmlns:xlink="http://www.w3.org/1999/xlink" xmlns:sketch="http://www.bohemiancoding.com/sketch/ns">
    <!-- Generator: Sketch 3.3.3 (12072) - http://www.bohemiancoding.com/sketch -->
    <title>Cubes hover</title>
    <desc>Created with Sketch.</desc>
    <defs></defs>
    <g id="Main" stroke="none" stroke-width="1" fill="none" fill-rule="evenodd" sketch:type="MSPage">
        <g id="Cube-Timer" sketch:type="MSArtboardGroup" transform="translate(-29.000000, -30.000000)">
            <g id="Cubes-hover" sketch:type="MSLayerGroup" transform="translate(29.000000, 30.000000)">
                <g id="Square-1" transform="translate(2.000000, 699.000000)" fill="#FF3D00" sketch:type="MSShapeGroup">
                    <path d="M32.0337663,0 C33.1393051,0 33.8503326,0.871245007 33.6191595,1.95882889 L29,23.6902657 L24.3808405,1.95882889 C24.1508902,0.876997568 24.8582165,0 25.9662337,0 L32.0337663,0 Z M3.99494078,0 C1.78859591,0 0,1.79378902 0,3.99494078 L0,19.9164527 C0,21.0228694 0.879071625,22.1066498 1.95742007,22.3358599 L27.8366627,27.8366627 L22.3358599,1.95742007 C22.1060749,0.876366815 21.0333668,0 19.9164527,0 L3.99494078,0 Z M25.7508746,58 C24.6468836,58 23.9387039,57.1212604 24.1681166,56.0419586 L29,33.3097343 L33.8318834,56.0419586 C34.0617413,57.123355 33.3531816,58 32.2491254,58 L25.7508746,58 Z M53.9932604,58 C56.2061216,58 58,56.2051375 58,53.9932604 L58,38.2960153 C58,37.1896475 57.1294527,36.1077186 56.039568,35.8760565 L30.4332698,30.4332698 L35.8760565,56.039568 C36.106195,57.1222847 37.1978558,58 38.2960153,58 L53.9932604,58 Z M54.0050592,0 C56.2114041,0 58,1.79486255 58,4.00673958 L58,19.7039847 C58,20.8103525 57.1224227,21.8937757 56.0459073,22.1225961 L30.2106554,27.6140484 L35.6627847,1.96379702 C35.8933182,0.879221876 36.9666332,0 38.0835473,0 L54.0050592,0 Z M4.00673958,58 C1.79387841,58 0,56.206211 0,54.0050592 L0,38.0835473 C0,36.9771306 0.872041546,35.8948444 1.96379702,35.6627847 L27.6140484,30.2106554 L22.1225961,56.0459073 C21.8932017,57.1251229 20.8021442,58 19.7039847,58 L4.00673958,58 Z M58,32.2491254 C58,33.3531164 57.1212604,34.0612961 56.0419586,33.8318834 L33.3097343,29 L56.0419586,24.1681166 C57.123355,23.9382587 58,24.6468184 58,25.7508746 L58,32.2491254 Z M0,25.9662337 C0,24.8606949 0.871245007,24.1496674 1.95882889,24.3808405 L23.6902657,29 L1.95882889,33.6191595 C0.876997568,33.8491098 0,33.1417835 0,32.0337663 L0,25.9662337 Z" id="Rectangle-123"></path>
                </g>
                <g id="Skewb" transform="translate(2.000000, 599.000000)" fill="#1DE9B6" sketch:type="MSShapeGroup">
                    <path d="M27.5734381,1.41793993 C28.3565447,0.634833332 29.623866,0.632488009 30.409318,1.41793993 L56.5648161,27.5734381 C57.3479227,28.3565447 57.350268,29.623866 56.5648161,30.409318 L30.409318,56.5648161 C29.6262114,57.3479227 28.35889,57.350268 27.5734381,56.5648161 L1.41793993,30.409318 C0.634833332,29.6262114 0.632488009,28.35889 1.41793993,27.5734381 L27.5734381,1.41793993 Z M3.00793008,1.77635684e-14 C1.34669617,1.77635684e-14 0,1.34312337 0,3.00793008 L0,21.0023284 C0,23.7624662 1.58727786,24.4127221 3.53353434,22.4664657 L22.4664657,3.53353434 C24.4179828,1.58201721 23.7607516,1.77635684e-14 21.0023284,1.77635684e-14 L3.00793008,1.77635684e-14 Z M58,3.00793008 C58,1.34669617 56.6568766,3.29649639e-15 54.9920699,2.97891405e-15 L36.9976716,-4.53738572e-16 C34.2375338,-9.80268785e-16 33.5872779,1.58727786 35.5335343,3.53353434 L54.4664657,22.4664657 C56.4179828,24.4179828 58,23.7607516 58,21.0023284 L58,3.00793008 Z M54.9920699,58 C56.6533038,58 58,56.6568766 58,54.9920699 L58,36.9976716 C58,34.2375338 56.4127221,33.5872779 54.4664657,35.5335343 L35.5335343,54.4664657 C33.5820172,56.4179828 34.2392484,58 36.9976716,58 L54.9920699,58 Z M1.44021213e-14,54.9920699 C1.42964877e-14,56.6533038 1.34312337,58 3.00793008,58 L21.0023284,58 C23.7624662,58 24.4127221,56.4127221 22.4664657,54.4664657 L3.53353434,35.5335343 C1.58201721,33.5820172 1.57217398e-14,34.2392484 1.55463388e-14,36.9976716 L1.44021213e-14,54.9920699 Z" id="Rectangle-129"></path>
                </g>
                <g id="Pyraminx" transform="translate(0.000000, 500.000000)" fill="#C6FF00" sketch:type="MSShapeGroup">
                    <path d="M50.6623273,41.6753455 C51.4011035,40.197793 52.6044904,40.2089808 53.3376727,41.6753455 L59.6623273,54.3246545 C60.4011035,55.802207 59.6470745,57 58.0074602,57 L45.9925398,57 C44.3398057,57 43.6044904,55.7910192 44.3376727,54.3246545 L50.6623273,41.6753455 Z M33.3376727,41.6753455 C32.5988965,40.197793 33.3529255,39 34.9925398,39 L47.0074602,39 C48.6601943,39 49.3955096,40.2089808 48.6623273,41.6753455 L42.3376727,54.3246545 C41.5988965,55.802207 40.3955096,55.7910192 39.6623273,54.3246545 L33.3376727,41.6753455 Z M28.6623273,41.6753455 C29.4011035,40.197793 30.6044904,40.2089808 31.3376727,41.6753455 L37.6623273,54.3246545 C38.4011035,55.802207 37.6470745,57 36.0074602,57 L23.9925398,57 C22.3398057,57 21.6044904,55.7910192 22.3376727,54.3246545 L28.6623273,41.6753455 Z M11.3376727,41.6753455 C10.5988965,40.197793 11.3529255,39 12.9925398,39 L25.0074602,39 C26.6601943,39 27.3955096,40.2089808 26.6623273,41.6753455 L20.3376727,54.3246545 C19.5988965,55.802207 18.3955096,55.7910192 17.6623273,54.3246545 L11.3376727,41.6753455 Z M6.66232726,41.6753455 C7.40110352,40.197793 8.60449038,40.2089808 9.33767274,41.6753455 L15.6623273,54.3246545 C16.4011035,55.802207 15.6470745,57 14.0074602,57 L1.99253976,57 C0.339805687,57 -0.395509616,55.7910192 0.337672738,54.3246545 L6.66232726,41.6753455 Z M39.6623273,21.6753455 C40.4011035,20.197793 41.6044904,20.2089808 42.3376727,21.6753455 L48.6623273,34.3246545 C49.4011035,35.802207 48.6470745,37 47.0074602,37 L34.9925398,37 C33.3398057,37 32.6044904,35.7910192 33.3376727,34.3246545 L39.6623273,21.6753455 Z M22.3376727,21.6753455 C21.5988965,20.197793 22.3529255,19 23.9925398,19 L36.0074602,19 C37.6601943,19 38.3955096,20.2089808 37.6623273,21.6753455 L31.3376727,34.3246545 C30.5988965,35.802207 29.3955096,35.7910192 28.6623273,34.3246545 L22.3376727,21.6753455 Z M17.6623273,21.6753455 C18.4011035,20.197793 19.6044904,20.2089808 20.3376727,21.6753455 L26.6623273,34.3246545 C27.4011035,35.802207 26.6470745,37 25.0074602,37 L12.9925398,37 C11.3398057,37 10.6044904,35.7910192 11.3376727,34.3246545 L17.6623273,21.6753455 Z M28.6623273,1.67534548 C29.4011035,0.197792969 30.6044904,0.208980769 31.3376727,1.67534548 L37.6623273,14.3246545 C38.4011035,15.802207 37.6470745,17 36.0074602,17 L23.9925398,17 C22.3398057,17 21.6044904,15.7910192 22.3376727,14.3246545 L28.6623273,1.67534548 Z" id="Triangle-1"></path>
                </g>
                <g id="6x6x6" transform="translate(2.000000, 400.000000)" fill="#40C4FF" sketch:type="MSShapeGroup">
                    <path d="M50,50 L58,50 L58,58 L50,58 L50,50 Z M40,51.9981014 C40,50.8945804 40.8867064,50 41.9981014,50 L46.0018986,50 C47.1054196,50 48,50.8867064 48,51.9981014 L48,58 L40,58 L40,51.9981014 Z M30,51.9981014 C30,50.8945804 30.8867064,50 31.9981014,50 L36.0018986,50 C37.1054196,50 38,50.8867064 38,51.9981014 L38,58 L30,58 L30,51.9981014 Z M20,51.9981014 C20,50.8945804 20.8867064,50 21.9981014,50 L26.0018986,50 C27.1054196,50 28,50.8867064 28,51.9981014 L28,58 L20,58 L20,51.9981014 Z M10,51.9981014 C10,50.8945804 10.8867064,50 11.9981014,50 L16.0018986,50 C17.1054196,50 18,50.8867064 18,51.9981014 L18,58 L10,58 L10,51.9981014 Z M0,50 L8,50 L8,58 L0,58 L0,50 Z M50,41.9981014 C50,40.8945804 50.8867064,40 51.9981014,40 L58,40 L58,48 L51.9981014,48 C50.8945804,48 50,47.1132936 50,46.0018986 L50,41.9981014 Z M40,41.9981014 C40,40.8945804 40.8867064,40 41.9981014,40 L46.0018986,40 C47.1054196,40 48,40.8867064 48,41.9981014 L48,46.0018986 C48,47.1054196 47.1132936,48 46.0018986,48 L41.9981014,48 C40.8945804,48 40,47.1132936 40,46.0018986 L40,41.9981014 Z M30,41.9981014 C30,40.8945804 30.8867064,40 31.9981014,40 L36.0018986,40 C37.1054196,40 38,40.8867064 38,41.9981014 L38,46.0018986 C38,47.1054196 37.1132936,48 36.0018986,48 L31.9981014,48 C30.8945804,48 30,47.1132936 30,46.0018986 L30,41.9981014 Z M20,41.9981014 C20,40.8945804 20.8867064,40 21.9981014,40 L26.0018986,40 C27.1054196,40 28,40.8867064 28,41.9981014 L28,46.0018986 C28,47.1054196 27.1132936,48 26.0018986,48 L21.9981014,48 C20.8945804,48 20,47.1132936 20,46.0018986 L20,41.9981014 Z M10,41.9981014 C10,40.8945804 10.8867064,40 11.9981014,40 L16.0018986,40 C17.1054196,40 18,40.8867064 18,41.9981014 L18,46.0018986 C18,47.1054196 17.1132936,48 16.0018986,48 L11.9981014,48 C10.8945804,48 10,47.1132936 10,46.0018986 L10,41.9981014 Z M0,40 L6.00189865,40 C7.10541955,40 8,40.8867064 8,41.9981014 L8,46.0018986 C8,47.1054196 7.11329365,48 6.00189865,48 L0,48 L0,40 Z M50,31.9981014 C50,30.8945804 50.8867064,30 51.9981014,30 L58,30 L58,38 L51.9981014,38 C50.8945804,38 50,37.1132936 50,36.0018986 L50,31.9981014 Z M40,31.9981014 C40,30.8945804 40.8867064,30 41.9981014,30 L46.0018986,30 C47.1054196,30 48,30.8867064 48,31.9981014 L48,36.0018986 C48,37.1054196 47.1132936,38 46.0018986,38 L41.9981014,38 C40.8945804,38 40,37.1132936 40,36.0018986 L40,31.9981014 Z M30,31.9981014 C30,30.8945804 30.8867064,30 31.9981014,30 L36.0018986,30 C37.1054196,30 38,30.8867064 38,31.9981014 L38,36.0018986 C38,37.1054196 37.1132936,38 36.0018986,38 L31.9981014,38 C30.8945804,38 30,37.1132936 30,36.0018986 L30,31.9981014 Z M20,31.9981014 C20,30.8945804 20.8867064,30 21.9981014,30 L26.0018986,30 C27.1054196,30 28,30.8867064 28,31.9981014 L28,36.0018986 C28,37.1054196 27.1132936,38 26.0018986,38 L21.9981014,38 C20.8945804,38 20,37.1132936 20,36.0018986 L20,31.9981014 Z M10,31.9981014 C10,30.8945804 10.8867064,30 11.9981014,30 L16.0018986,30 C17.1054196,30 18,30.8867064 18,31.9981014 L18,36.0018986 C18,37.1054196 17.1132936,38 16.0018986,38 L11.9981014,38 C10.8945804,38 10,37.1132936 10,36.0018986 L10,31.9981014 Z M0,30 L6.00189865,30 C7.10541955,30 8,30.8867064 8,31.9981014 L8,36.0018986 C8,37.1054196 7.11329365,38 6.00189865,38 L0,38 L0,30 Z M50,21.9981014 C50,20.8945804 50.8867064,20 51.9981014,20 L58,20 L58,28 L51.9981014,28 C50.8945804,28 50,27.1132936 50,26.0018986 L50,21.9981014 Z M40,21.9981014 C40,20.8945804 40.8867064,20 41.9981014,20 L46.0018986,20 C47.1054196,20 48,20.8867064 48,21.9981014 L48,26.0018986 C48,27.1054196 47.1132936,28 46.0018986,28 L41.9981014,28 C40.8945804,28 40,27.1132936 40,26.0018986 L40,21.9981014 Z M30,21.9981014 C30,20.8945804 30.8867064,20 31.9981014,20 L36.0018986,20 C37.1054196,20 38,20.8867064 38,21.9981014 L38,26.0018986 C38,27.1054196 37.1132936,28 36.0018986,28 L31.9981014,28 C30.8945804,28 30,27.1132936 30,26.0018986 L30,21.9981014 Z M20,21.9981014 C20,20.8945804 20.8867064,20 21.9981014,20 L26.0018986,20 C27.1054196,20 28,20.8867064 28,21.9981014 L28,26.0018986 C28,27.1054196 27.1132936,28 26.0018986,28 L21.9981014,28 C20.8945804,28 20,27.1132936 20,26.0018986 L20,21.9981014 Z M10,21.9981014 C10,20.8945804 10.8867064,20 11.9981014,20 L16.0018986,20 C17.1054196,20 18,20.8867064 18,21.9981014 L18,26.0018986 C18,27.1054196 17.1132936,28 16.0018986,28 L11.9981014,28 C10.8945804,28 10,27.1132936 10,26.0018986 L10,21.9981014 Z M0,20 L6.00189865,20 C7.10541955,20 8,20.8867064 8,21.9981014 L8,26.0018986 C8,27.1054196 7.11329365,28 6.00189865,28 L0,28 L0,20 Z M50,11.9981014 C50,10.8945804 50.8867064,10 51.9981014,10 L58,10 L58,18 L51.9981014,18 C50.8945804,18 50,17.1132936 50,16.0018986 L50,11.9981014 Z M40,11.9981014 C40,10.8945804 40.8867064,10 41.9981014,10 L46.0018986,10 C47.1054196,10 48,10.8867064 48,11.9981014 L48,16.0018986 C48,17.1054196 47.1132936,18 46.0018986,18 L41.9981014,18 C40.8945804,18 40,17.1132936 40,16.0018986 L40,11.9981014 Z M30,11.9981014 C30,10.8945804 30.8867064,10 31.9981014,10 L36.0018986,10 C37.1054196,10 38,10.8867064 38,11.9981014 L38,16.0018986 C38,17.1054196 37.1132936,18 36.0018986,18 L31.9981014,18 C30.8945804,18 30,17.1132936 30,16.0018986 L30,11.9981014 Z M20,11.9981014 C20,10.8945804 20.8867064,10 21.9981014,10 L26.0018986,10 C27.1054196,10 28,10.8867064 28,11.9981014 L28,16.0018986 C28,17.1054196 27.1132936,18 26.0018986,18 L21.9981014,18 C20.8945804,18 20,17.1132936 20,16.0018986 L20,11.9981014 Z M10,11.9981014 C10,10.8945804 10.8867064,10 11.9981014,10 L16.0018986,10 C17.1054196,10 18,10.8867064 18,11.9981014 L18,16.0018986 C18,17.1054196 17.1132936,18 16.0018986,18 L11.9981014,18 C10.8945804,18 10,17.1132936 10,16.0018986 L10,11.9981014 Z M0,10 L6.00189865,10 C7.10541955,10 8,10.8867064 8,11.9981014 L8,16.0018986 C8,17.1054196 7.11329365,18 6.00189865,18 L0,18 L0,10 Z M50,0 L58,0 L58,8 L50,8 L50,0 Z M40,0 L48,0 L48,6.00189865 C48,7.10541955 47.1132936,8 46.0018986,8 L41.9981014,8 C40.8945804,8 40,7.11329365 40,6.00189865 L40,0 Z M30,0 L38,0 L38,6.00189865 C38,7.10541955 37.1132936,8 36.0018986,8 L31.9981014,8 C30.8945804,8 30,7.11329365 30,6.00189865 L30,0 Z M20,0 L28,0 L28,6.00189865 C28,7.10541955 27.1132936,8 26.0018986,8 L21.9981014,8 C20.8945804,8 20,7.11329365 20,6.00189865 L20,0 Z M10,0 L18,0 L18,6.00189865 C18,7.10541955 17.1132936,8 16.0018986,8 L11.9981014,8 C10.8945804,8 10,7.11329365 10,6.00189865 L10,0 Z M0,0 L8,0 L8,8 L0,8 L0,0 Z" id="Rectangle-57"></path>
                </g>
                <g id="5x5x5" transform="translate(1.500000, 300.000000)" fill="#FFEB3B" sketch:type="MSShapeGroup">
                    <path d="M48,48 L58,48 L58,58 L48,58 L48,48 Z M36,49.999615 C36,48.8952581 36.8874333,48 37.999615,48 L44.000385,48 C45.1047419,48 46,48.8874333 46,49.999615 L46,58 L36,58 L36,49.999615 Z M24,49.999615 C24,48.8952581 24.8874333,48 25.999615,48 L32.000385,48 C33.1047419,48 34,48.8874333 34,49.999615 L34,58 L24,58 L24,49.999615 Z M12,49.999615 C12,48.8952581 12.8874333,48 13.999615,48 L20.000385,48 C21.1047419,48 22,48.8874333 22,49.999615 L22,58 L12,58 L12,49.999615 Z M0,48 L10,48 L10,58 L0,58 L0,48 Z M48,37.999615 C48,36.8952581 48.8874333,36 49.999615,36 L58,36 L58,46 L49.999615,46 C48.8952581,46 48,45.1125667 48,44.000385 L48,37.999615 Z M36,37.999615 C36,36.8952581 36.8874333,36 37.999615,36 L44.000385,36 C45.1047419,36 46,36.8874333 46,37.999615 L46,44.000385 C46,45.1047419 45.1125667,46 44.000385,46 L37.999615,46 C36.8952581,46 36,45.1125667 36,44.000385 L36,37.999615 Z M24,37.999615 C24,36.8952581 24.8874333,36 25.999615,36 L32.000385,36 C33.1047419,36 34,36.8874333 34,37.999615 L34,44.000385 C34,45.1047419 33.1125667,46 32.000385,46 L25.999615,46 C24.8952581,46 24,45.1125667 24,44.000385 L24,37.999615 Z M12,37.999615 C12,36.8952581 12.8874333,36 13.999615,36 L20.000385,36 C21.1047419,36 22,36.8874333 22,37.999615 L22,44.000385 C22,45.1047419 21.1125667,46 20.000385,46 L13.999615,46 C12.8952581,46 12,45.1125667 12,44.000385 L12,37.999615 Z M0,36 L8.00038502,36 C9.10474188,36 10,36.8874333 10,37.999615 L10,44.000385 C10,45.1047419 9.11256671,46 8.00038502,46 L0,46 L0,36 Z M48,25.999615 C48,24.8952581 48.8874333,24 49.999615,24 L58,24 L58,34 L49.999615,34 C48.8952581,34 48,33.1125667 48,32.000385 L48,25.999615 Z M36,25.999615 C36,24.8952581 36.8874333,24 37.999615,24 L44.000385,24 C45.1047419,24 46,24.8874333 46,25.999615 L46,32.000385 C46,33.1047419 45.1125667,34 44.000385,34 L37.999615,34 C36.8952581,34 36,33.1125667 36,32.000385 L36,25.999615 Z M24,25.999615 C24,24.8952581 24.8874333,24 25.999615,24 L32.000385,24 C33.1047419,24 34,24.8874333 34,25.999615 L34,32.000385 C34,33.1047419 33.1125667,34 32.000385,34 L25.999615,34 C24.8952581,34 24,33.1125667 24,32.000385 L24,25.999615 Z M12,25.999615 C12,24.8952581 12.8874333,24 13.999615,24 L20.000385,24 C21.1047419,24 22,24.8874333 22,25.999615 L22,32.000385 C22,33.1047419 21.1125667,34 20.000385,34 L13.999615,34 C12.8952581,34 12,33.1125667 12,32.000385 L12,25.999615 Z M0,24 L8.00038502,24 C9.10474188,24 10,24.8874333 10,25.999615 L10,32.000385 C10,33.1047419 9.11256671,34 8.00038502,34 L0,34 L0,24 Z M48,13.999615 C48,12.8952581 48.8874333,12 49.999615,12 L58,12 L58,22 L49.999615,22 C48.8952581,22 48,21.1125667 48,20.000385 L48,13.999615 Z M36,13.999615 C36,12.8952581 36.8874333,12 37.999615,12 L44.000385,12 C45.1047419,12 46,12.8874333 46,13.999615 L46,20.000385 C46,21.1047419 45.1125667,22 44.000385,22 L37.999615,22 C36.8952581,22 36,21.1125667 36,20.000385 L36,13.999615 Z M24,13.999615 C24,12.8952581 24.8874333,12 25.999615,12 L32.000385,12 C33.1047419,12 34,12.8874333 34,13.999615 L34,20.000385 C34,21.1047419 33.1125667,22 32.000385,22 L25.999615,22 C24.8952581,22 24,21.1125667 24,20.000385 L24,13.999615 Z M12,13.999615 C12,12.8952581 12.8874333,12 13.999615,12 L20.000385,12 C21.1047419,12 22,12.8874333 22,13.999615 L22,20.000385 C22,21.1047419 21.1125667,22 20.000385,22 L13.999615,22 C12.8952581,22 12,21.1125667 12,20.000385 L12,13.999615 Z M0,12 L8.00038502,12 C9.10474188,12 10,12.8874333 10,13.999615 L10,20.000385 C10,21.1047419 9.11256671,22 8.00038502,22 L0,22 L0,12 Z M48,0 L58,0 L58,10 L48,10 L48,0 Z M36,0 L46,0 L46,8.00038502 C46,9.10474188 45.1125667,10 44.000385,10 L37.999615,10 C36.8952581,10 36,9.11256671 36,8.00038502 L36,0 Z M24,0 L34,0 L34,8.00038502 C34,9.10474188 33.1125667,10 32.000385,10 L25.999615,10 C24.8952581,10 24,9.11256671 24,8.00038502 L24,0 Z M12,0 L22,0 L22,8.00038502 C22,9.10474188 21.1125667,10 20.000385,10 L13.999615,10 C12.8952581,10 12,9.11256671 12,8.00038502 L12,0 Z M0,0 L10,0 L10,10 L0,10 L0,0 Z" id="Rectangle-82"></path>
                </g>
                <g id="4x4x4" transform="translate(2.000000, 200.000000)" fill="#FF1744" sketch:type="MSShapeGroup">
                    <path d="M45,49.0065045 C45,46.7937732 46.7939455,45 49.0065045,45 L58,45 L58,58 L45,58 L45,49.0065045 Z M30,45 L38.9934955,45 C41.2062268,45 43,46.7939455 43,49.0065045 L43,58 L30,58 L30,45 Z M15,49.0065045 C15,46.7937732 16.7939455,45 19.0065045,45 L28,45 L28,58 L15,58 L15,49.0065045 Z M0,45 L8.99349548,45 C11.2062268,45 13,46.7939455 13,49.0065045 L13,58 L0,58 L0,45 Z M45,30 L58,30 L58,43 L49.0065045,43 C46.7937732,43 45,41.2060545 45,38.9934955 L45,30 Z M30,30 L43,30 L43,38.9934955 C43,41.2062268 41.2060545,43 38.9934955,43 L30,43 L30,30 Z M15,30 L28,30 L28,43 L19.0065045,43 C16.7937732,43 15,41.2060545 15,38.9934955 L15,30 Z M0,30 L13,30 L13,38.9934955 C13,41.2062268 11.2060545,43 8.99349548,43 L0,43 L0,30 Z M45,19.0065045 C45,16.7937732 46.7939455,15 49.0065045,15 L58,15 L58,28 L45,28 L45,19.0065045 Z M30,15 L38.9934955,15 C41.2062268,15 43,16.7939455 43,19.0065045 L43,28 L30,28 L30,15 Z M15,19.0065045 C15,16.7937732 16.7939455,15 19.0065045,15 L28,15 L28,28 L15,28 L15,19.0065045 Z M0,15 L8.99349548,15 C11.2062268,15 13,16.7939455 13,19.0065045 L13,28 L0,28 L0,15 Z M45,0 L58,0 L58,13 L49.0065045,13 C46.7937732,13 45,11.2060545 45,8.99349548 L45,0 Z M30,0 L43,0 L43,8.99349548 C43,11.2062268 41.2060545,13 38.9934955,13 L30,13 L30,0 Z M15,0 L28,0 L28,13 L19.0065045,13 C16.7937732,13 15,11.2060545 15,8.99349548 L15,0 Z M0,0 L13,0 L13,8.99349548 C13,11.2062268 11.2060545,13 8.99349548,13 L0,13 L0,0 Z" id="Rectangle-98"></path>
                </g>
                <g id="3x3x3" transform="translate(2.000000, 100.000000)" fill="#FF9100" sketch:type="MSShapeGroup">
                    <path d="M40,40 L58,40 L58,58 L40,58 L40,40 Z M20,43.9947834 C20,41.7885255 21.7917156,40 23.9947834,40 L34.0052166,40 C36.2114745,40 38,41.7917156 38,43.9947834 L38,58 L20,58 L20,43.9947834 Z M0,40 L18,40 L18,58 L0,58 L0,40 Z M40,23.9947834 C40,21.7885255 41.7917156,20 43.9947834,20 L58,20 L58,38 L43.9947834,38 C41.7885255,38 40,36.2082844 40,34.0052166 L40,23.9947834 Z M20,29 C20,24.0294373 24.0283444,20 29,20 C33.9705627,20 38,24.0283444 38,29 C38,33.9705627 33.9716556,38 29,38 C24.0294373,38 20,33.9716556 20,29 Z M0,20 L14.0052166,20 C16.2114745,20 18,21.7917156 18,23.9947834 L18,34.0052166 C18,36.2114745 16.2082844,38 14.0052166,38 L0,38 L0,20 Z M40,0 L58,0 L58,18 L40,18 L40,0 Z M20,0 L38,0 L38,14.0052166 C38,16.2114745 36.2082844,18 34.0052166,18 L23.9947834,18 C21.7885255,18 20,16.2082844 20,14.0052166 L20,0 Z M0,0 L18,0 L18,18 L0,18 L0,0 Z" id="Rectangle-107"></path>
                </g>
                <g id="2x2x2" transform="translate(2.000000, 0.000000)" fill="#00E676" sketch:type="MSShapeGroup">
                    <path d="M30,39.9900582 C30,34.4727014 34.4676442,30 39.9900582,30 L58,30 L58,58 L30,58 L30,39.9900582 Z M0,30 L18.0099418,30 C23.5272986,30 28,34.4676442 28,39.9900582 L28,58 L0,58 L0,30 Z M30,0 L58,0 L58,28 L39.9900582,28 C34.4727014,28 30,23.5323558 30,18.0099418 L30,0 Z M0,0 L28,0 L28,18.0099418 C28,23.5272986 23.5323558,28 18.0099418,28 L0,28 L0,0 Z" id="Rectangle-111"></path>
                </g>
            </g>
        </g>
    </g>
</svg>