<?xml version="1.0" encoding="UTF-8" standalone="no"?>
<svg width="32px" height="22px" viewBox="0 0 32 22" version="1.1" xmlns="http://www.w3.org/2000/svg" xmlns:xlink="http://www.w3.org/1999/xlink" xmlns:sketch="http://www.bohemiancoding.com/sketch/ns">
    <!-- Generator: Sketch 3.3.3 (12072) - http://www.bohemiancoding.com/sketch -->
    <title>Shape</title>
    <desc>Created with Sketch.</desc>
    <defs></defs>
    <g id="Main" stroke="none" stroke-width="1" fill="none" fill-rule="evenodd" sketch:type="MSPage">
        <g id="Cube-Timer" sketch:type="MSArtboardGroup" transform="translate(-620.000000, -89.000000)" fill="#FFFFFF">
            <g id="Refresh-Button" sketch:type="MSLayerGroup" transform="translate(606.000000, 80.000000)">
                <g id="Refresh" transform="translate(14.000000, 9.000000)" sketch:type="MSShapeGroup">
                    <path d="M4,18.009947 C4,20.2157067 5.7864638,22 7.99017859,22 L24.0098214,22 C26.2147544,22 28,20.2135924 28,18.009947 L28,16.0022688 C28,15.444128 27.5522847,15 27,15 C26.4438648,15 26,15.448731 26,16.0022688 L26,18.009947 C26,19.1095241 25.1096838,20 24.0098214,20 L7.99017859,20 C6.89012484,20 6,19.110229 6,18.009947 L6,15 L10,15 L5,10 L0,15 L4,15 L4,18.009947 Z M26,3.99005301 C26,2.88977103 25.1098752,2 24.0098214,2 L7.99017859,2 C6.89031618,2 6,2.89047594 6,3.99005301 L6,5.99773124 C6,6.55587196 5.55228475,7 5,7 C4.44386482,7 4,6.55126899 4,5.99773124 L4,3.99005301 C4,1.78640758 5.7852456,0 7.99017859,0 L24.0098214,0 C26.2135362,0 28,1.78429328 28,3.99005301 L28,7 L32,7 L27,12 L22,7 L26,7 L26,3.99005301 Z" id="Shape"></path>
                </g>
            </g>
        </g>
    </g>
</svg>